<?xml version="1.0" encoding="UTF-8"?>
<svg width="118px" height="119px" viewBox="0 0 118 119" version="1.1" xmlns="http://www.w3.org/2000/svg" xmlns:xlink="http://www.w3.org/1999/xlink">
    <title>10 Logo</title>
    <defs>
        <linearGradient x1="13.9079286%" y1="17.1902442%" x2="88.8731613%" y2="81.1126978%" id="linearGradient-1">
            <stop stop-color="#06B0FE" offset="0%"></stop>
            <stop stop-color="#0283FA" offset="25%"></stop>
            <stop stop-color="#0164F6" offset="50%"></stop>
            <stop stop-color="#0052F4" offset="75%"></stop>
            <stop stop-color="#0047F3" offset="100%"></stop>
        </linearGradient>
    </defs>
    <g id="Working-Files" stroke="none" stroke-width="1" fill="none" fill-rule="evenodd">
        <g id="Desktop-HD-Copy-6" transform="translate(-901.000000, -5174.000000)">
            <g id="10-Logo" transform="translate(901.000000, 5174.000000)">
                <path d="M118,59.5 C118,92.3609382 91.584799,119 59,119 C26.4151998,119 0,92.3609382 0,59.5 C0,26.6390618 26.4151998,0 59,0 C91.584799,0 118,26.6390618 118,59.5 Z" id="path3041" fill="url(#linearGradient-1)" fill-rule="nonzero"></path>
                <path d="M71.8665683,34 C60.5498495,34 51.8619951,40.8518992 48.0706719,48.4081511 L48.0706719,35.0291537 L31,45.1736682 L31,87.8835447 L48.0706719,87.8835447 L48.0706719,74.5780582 C51.2516865,81.0192222 59.5576203,89 71.7981762,89 C87.4960407,89 99,76.1764515 99,61.7917357 C99,44.6664278 85.4312452,34 71.8665683,34 Z M71.9577578,51.2061552 C77.4145396,51.2061552 82.0113987,55.7501774 82.0113987,61.4701398 C82.0113987,66.7196762 77.9404432,71.7846412 71.9668768,71.7846412 C66.0263005,71.7846412 61.7582138,66.8742992 61.7582138,61.4885176 C61.7582138,56.391443 65.6539132,51.2061552 71.9577578,51.2061552 Z" id="path3875" fill-opacity="0.39215686" fill="#000000" fill-rule="nonzero"></path>
                <path d="M71.8665683,33 C60.5498495,33 51.8619951,39.8518992 48.0706719,47.4081511 L48.0706719,34.0291537 L31,44.1736682 L31,86.8835447 L48.0706719,86.8835447 L48.0706719,73.5780582 C51.2516865,80.0192222 59.5576203,88 71.7981762,88 C87.4960407,88 99,75.1764515 99,60.7917357 C99,43.6664278 85.4312452,33 71.8665683,33 Z M71.9577578,50.2061552 C77.4145396,50.2061552 82.0113987,54.7501774 82.0113987,60.4701398 C82.0113987,65.7196762 77.9404432,70.7846412 71.9668768,70.7846412 C66.0263005,70.7846412 61.7582138,65.8742992 61.7582138,60.4885176 C61.7582138,55.391443 65.6539132,50.2061552 71.9577578,50.2061552 Z" id="path3043" fill="#FFFFFF" fill-rule="nonzero"></path>
                <path d="M20,63 L20,44.9091521 C23.9826809,44.9091521 30.3870968,41.8915479 30.3870968,34 L48,34 C48,50.3714101 35.3998239,63 20,63 Z" id="path3899" fill-opacity="0.39215686" fill="#000000" fill-rule="nonzero"></path>
                <path d="M20,63 L20,44.9091521 C23.9826809,44.9091521 30.3870968,41.8915479 30.3870968,34 L48,34 C48,50.3714101 35.3998239,63 20,63 Z" id="path3045" fill="#FFFFFF" fill-rule="nonzero"></path>
                <g id="Network_10_logo_2018"></g>
            </g>
        </g>
    </g>
</svg>