<?xml version="1.0" encoding="UTF-8"?>
<svg width="224px" height="73px" viewBox="0 0 224 73" version="1.1" xmlns="http://www.w3.org/2000/svg" xmlns:xlink="http://www.w3.org/1999/xlink">
    <title>Google Logo</title>
    <g id="Working-Files" stroke="none" stroke-width="1" fill="none" fill-rule="evenodd">
        <g id="Desktop-HD-Copy-6" transform="translate(-848.000000, -4989.000000)">
            <g id="Google-Logo" transform="translate(848.000000, 4989.000000)">
                <path d="M28.1083238,26.845 L28.1083238,34.9083333 L46.2109464,34.9083333 C45.6567845,39.4316667 44.2405929,42.7422222 42.0855188,45.0694444 C39.4378563,47.8883333 35.3124287,50.9694444 28.1083238,50.9694444 C16.963512,50.9694444 8.25085519,41.3983333 8.25085519,29.5327778 C8.25085519,17.6672222 16.963512,8.09611111 28.1083238,8.09611111 C34.1117446,8.09611111 38.5142531,10.62 41.7468643,13.865 L47.0729761,8.19444444 C42.5781072,3.54 36.5438997,0 28.1083238,0 C12.8380844,0 0,13.2422222 0,29.5 C0,45.7577778 12.8380844,59 28.1083238,59 C36.359179,59 42.5781072,56.1155556 47.4424173,50.74 C52.4298746,45.43 54,37.9238889 54,31.8927778 C54,30.0244444 53.8768529,28.2872222 53.5997719,26.845 L28.1083238,26.845 Z" id="Path" fill="#4285F4" fill-rule="nonzero"></path>
                <path d="M78,20 C68.0891938,20 60,27.7693632 60,38.5 C60,49.1351119 68.0891938,57 78,57 C87.9108062,57 96,49.1669535 96,38.5 C96,27.7693632 87.9108062,20 78,20 Z M78,49.7082616 C72.5660377,49.7082616 67.8730703,45.091222 67.8730703,38.5 C67.8730703,31.8450947 72.5660377,27.2917384 78,27.2917384 C83.4339623,27.2917384 88.1269297,31.8450947 88.1269297,38.5 C88.1269297,45.091222 83.4339623,49.7082616 78,49.7082616 Z" id="Shape" fill="#EA4335" fill-rule="nonzero"></path>
                <path d="M166.52,24.1011905 L166.241818,24.1011905 C164.48,21.9559524 161.08,20 156.783636,20 C147.82,20 140,27.9815476 140,38.3291667 C140,48.6136905 147.82,56.6583333 156.783636,56.6583333 C161.08,56.6583333 164.48,54.702381 166.241818,52.4940476 L166.52,52.4940476 L166.52,55.0494048 C166.52,62.0529762 162.841818,65.8071429 156.938182,65.8071429 C152.116364,65.8071429 149.118182,62.2738095 147.881818,59.2767857 L141.02,62.1791667 C142.998182,67.0375 148.221818,73 156.938182,73 C166.18,73 174,67.447619 174,53.9136905 L174,20.9464286 L166.52,20.9464286 L166.52,24.1011905 Z M157.463636,49.4339286 C152.023636,49.4339286 147.881818,44.7017857 147.881818,38.3291667 C147.881818,31.8619048 152.023636,27.2244048 157.463636,27.2244048 C162.841818,27.2244048 167.045623,31.9565476 167.045623,38.3922619 C167.076364,44.7964286 162.841818,49.4339286 157.463636,49.4339286 Z" id="Shape" fill="#4285F4" fill-rule="nonzero"></path>
                <path d="M116,20 C106.089194,20 98,27.7693632 98,38.5 C98,49.1351119 106.089194,57 116,57 C125.910806,57 134,49.1669535 134,38.5 C134,27.7693632 125.910806,20 116,20 Z M116,49.7082616 C110.566038,49.7082616 105.87307,45.091222 105.87307,38.5 C105.87307,31.8450947 110.566038,27.2917384 116,27.2917384 C121.433962,27.2917384 126.12693,31.8450947 126.12693,38.5 C126.12693,45.091222 121.433962,49.7082616 116,49.7082616 Z" id="Shape" fill="#FBBC05" fill-rule="nonzero"></path>
                <polygon id="Path" fill="#34A853" fill-rule="nonzero" points="178 0 185 0 185 56 178 56"></polygon>
                <path d="M208.747899,49.7082616 C204.742297,49.7082616 201.907563,47.8296041 200.058824,44.1041308 L224,33.8829604 L223.19888,31.7814114 C221.719888,27.6419966 217.159664,20 207.885154,20 C198.672269,20 191,27.4827883 191,38.5 C191,48.8803787 198.579832,57 208.747899,57 C216.943978,57 221.689076,51.8098107 223.661064,48.8166954 L217.560224,44.6135972 C215.526611,47.6703959 212.753501,49.7082616 208.747899,49.7082616 Z M208.193277,26.9414802 C211.366947,26.9414802 214.078431,28.6290878 214.971989,31.0172117 L198.795518,37.9268503 C198.795518,30.1574871 204.12605,26.9414802 208.193277,26.9414802 L208.193277,26.9414802 Z" id="Shape" fill="#EA4335" fill-rule="nonzero"></path>
                <g id="google-logo"></g>
            </g>
        </g>
    </g>
</svg>