<?xml version="1.0" encoding="UTF-8"?>
<svg width="250px" height="49px" viewBox="0 0 250 49" version="1.1" xmlns="http://www.w3.org/2000/svg" xmlns:xlink="http://www.w3.org/1999/xlink">
    <title>Qantas Logo</title>
    <defs>
        <linearGradient x1="63.358%" y1="100.037633%" x2="14.731%" y2="-0.700082278%" id="linearGradient-1">
            <stop stop-color="#BE0000" offset="0%"></stop>
            <stop stop-color="#DE0000" offset="38.98%"></stop>
            <stop stop-color="#F60000" offset="76.8%"></stop>
            <stop stop-color="#FF0000" offset="100%"></stop>
        </linearGradient>
        <linearGradient x1="54.909%" y1="50%" x2="54.909%" y2="8.016%" id="linearGradient-2">
            <stop stop-color="#FFFFFF" stop-opacity="0" offset="0%"></stop>
            <stop stop-color="#E0E0E0" stop-opacity="0.262" offset="51.203%"></stop>
            <stop stop-color="#C5C5C5" stop-opacity="0.549" offset="66.549%"></stop>
            <stop stop-color="#B5B5B5" stop-opacity="0.805" offset="82.415%"></stop>
            <stop stop-color="#AFAFAF" offset="100%"></stop>
        </linearGradient>
        <linearGradient x1="0.039%" y1="50.172%" x2="90.048%" y2="50.172%" id="linearGradient-3">
            <stop stop-color="#FFFFFF" stop-opacity="0" offset="0%"></stop>
            <stop stop-color="#F1F1F1" stop-opacity="0.093" offset="8.391%"></stop>
            <stop stop-color="#D4D4D4" stop-opacity="0.325" offset="24.826%"></stop>
            <stop stop-color="#C0C0C0" stop-opacity="0.555" offset="44.531%"></stop>
            <stop stop-color="#B3B3B3" stop-opacity="0.781" offset="70.32%"></stop>
            <stop stop-color="#AFAFAF" offset="100%"></stop>
        </linearGradient>
        <linearGradient x1="24.956%" y1="49.876%" x2="99.854%" y2="49.876%" id="linearGradient-4">
            <stop stop-color="#FFFFFF" stop-opacity="0" offset="0%"></stop>
            <stop stop-color="#EDEDED" stop-opacity="0.282" offset="28.583%"></stop>
            <stop stop-color="#BDBDBD" stop-opacity="0.848" offset="88.6%"></stop>
            <stop stop-color="#AFAFAF" offset="100%"></stop>
        </linearGradient>
    </defs>
    <g id="Working-Files" stroke="none" stroke-width="1" fill="none" fill-rule="evenodd">
        <g id="Desktop-HD-Copy-6" transform="translate(-294.000000, -4999.000000)" fill-rule="nonzero">
            <g id="qantas-vector-logo" transform="translate(294.000000, 4999.000000)">
                <path d="M68.1818182,49 L28.3332411,8.54299287 C23.0306718,3.18294787 15.8247411,0 8.3259856,0 L0,0 L0.622252734,1.63312914 L3.39676786,8.96199525 L18.4748057,49 L68.1818182,49 Z" id="Path" fill="url(#linearGradient-1)"></path>
                <path d="M24.0284221,34.0832522 C24.1111069,34.6719268 24.5670888,35.1766814 25.1470977,35.2606015 C33.3754431,36.565065 41.3581662,40.0119587 48.3061144,45.6913733 C48.3474567,45.7333333 48.3887991,45.7333333 48.4726998,45.7333333 C48.5152581,45.7333333 48.5979428,45.6913733 48.6392852,45.6494133 C48.7219699,45.5654932 48.7219699,45.3964189 48.6392852,45.3124988 C43.8411396,40.1822671 37.9267504,36.0603104 31.3508835,33.3686974 L29.322676,32.5270284 C28.289117,32.107428 27.5862969,31.0547247 27.5862969,29.8773754 C27.710324,25.5036585 37.8854081,26.3848193 38.918967,24.2843492 L39.0831205,23.9054747 C36.9734443,22.0950225 34.4916868,20.7091071 31.7630911,19.9501241 C31.7205328,20.0772383 31.6779745,20.5795246 32.2166411,21.5051137 C32.8367765,22.5170911 31.5551634,24.1140408 29.6935413,22.3899769 L29.5281718,22.2640968 C15.7988608,9.39347214 5.45962327,16.0577135 0,1.63333333 L2.76993804,8.98868118 C8.18821895,18.4099438 22.4561966,19.4046436 24.0284221,34.0832522 Z" id="Path" fill="#FFFFFF"></path>
                <path d="M33.1358046,22.86785 C33.2794358,23.1849714 33.2785757,23.5979393 33.1616066,23.9150608 C33.0394771,24.2416486 32.7934979,24.4676568 32.4675325,24.4676568 L32.4675325,27.7666667 C33.5202546,27.3643484 34.7209082,27.080359 35.7142857,26.7987362 L35.7142857,24.943339 C35.7142857,24.943339 34.1007999,25.0853337 33.1358046,22.8666667 L33.1358046,22.86785 Z" id="Path" fill="url(#linearGradient-2)"></path>
                <path d="M27.5974026,34.545954 C35.0807146,35.9361857 42.3584148,39.1232042 48.7012987,44.1 C34.511696,32.2748529 28.0863283,34.3847339 27.598598,34.5436175 L27.5974026,34.545954 Z" id="Path" fill="url(#linearGradient-3)"></path>
                <path d="M1.62337662,1.63333333 L4.24548885,9.03827442 C9.36895813,18.5166983 22.8647858,19.5323324 24.3506494,34.3 C22.8256841,15.4275814 15.1962575,18.221196 6.982606,9.67397694 C4.86996558,8.02264031 3.07243864,5.65365514 1.62337662,1.63333333 Z" id="Path" fill="url(#linearGradient-4)"></path>
                <g id="Group" transform="translate(56.818182, 14.700000)" fill="#FFFFFF">
                    <path d="M0.211406518,12.86152 C0.211406518,5.70098667 6.94239565,0.182933333 16.9295312,0.182933333 C26.8741424,0.182933333 33.6476558,5.70098667 33.6476558,12.58712 C33.6476558,15.64472 32.3767867,18.19664 29.9638365,20.2964533 L35.8892939,20.2964533 L34.4920669,22.8941067 C33.6027015,24.5378933 32.5019297,25.5401067 30.1302887,25.4813067 L16.6318611,25.5401067 C6.60098628,25.5401067 0.210191538,19.9305867 0.210191538,12.8628267 L0.211406518,12.86152 Z M16.8882218,19.7933867 C22.3459119,19.7933867 27.0017153,16.8742933 27.0017153,12.86152 C27.0017153,8.84744 22.3884362,5.92834667 16.8870069,5.92834667 C11.4256718,5.92834667 6.7698685,8.84744 6.7698685,12.86152 C6.7698685,16.8729867 11.4256718,19.7933867 16.8857919,19.7933867 L16.8882218,19.7933867 Z M44.9542596,20.9066667 L42.4489708,25.48 L35.8880789,25.48 L46.8508433,5.10906667 C47.6976844,3.51101333 48.9673385,2.2344 51.422813,1.96 L53.8770726,1.96 C56.3738565,2.2344 57.6009863,3.46658667 58.4478273,5.10906667 L69.4093768,25.48 L62.7221269,25.48 L60.1415094,20.9066667 L44.9542596,20.9066667 Z M57.8111778,16.3333333 L52.945183,6.8404 C52.8176101,6.61304 52.7325615,6.566 52.5636792,6.566 C52.393582,6.566 52.3085334,6.61304 52.1833905,6.8404 L47.35992,16.3333333 L57.8111778,16.3333333 L57.8111778,16.3333333 Z M100.843339,25.48 L94.8012436,25.48 L77.7587193,10.07832 L77.7587193,25.48 L71.6838193,25.48 L71.6838193,1.96 L75.4599771,1.96 C77.3225415,2.2344 78.2957404,2.7832 79.353988,3.73968 L94.7684391,17.6491467 L94.7684391,1.96 L100.843339,1.96 L100.843339,25.48 Z M121.497999,25.48 L115.423099,25.48 L115.423099,7.18666667 L103.273299,7.18666667 L103.273299,1.96 L133.647799,1.96 L133.647799,7.18666667 L121.497999,7.18666667 M137.292739,20.9066667 L134.879788,25.48 L128.318897,25.48 L139.281661,5.10906667 C140.127287,3.51101333 141.395726,2.2344 143.852416,1.96 L146.306675,1.96 C148.802244,2.2344 150.029374,3.46658667 150.875,5.10906667 L161.837764,25.48 L155.152945,25.48 L152.479989,20.9066667 L137.292739,20.9066667 Z M150.28452,16.3333333 L145.418525,6.8404 C145.290952,6.61304 145.205903,6.566 145.037021,6.566 C144.866924,6.566 144.781875,6.61304 144.656732,6.8404 L139.833262,16.3333333 L150.285735,16.3333333 L150.28452,16.3333333 Z M163.362564,23.66896 L164.84484,18.6069333 C169.0754,20.06648 173.562321,20.6584 177.626429,20.6584 C184.26994,20.6584 185.919883,19.83912 185.919883,18.9270667 C185.919883,18.5612 185.708476,18.2868 185.15809,18.1038667 C184.481346,17.8778133 182.661306,17.46752 177.199971,16.5097333 C171.191895,15.46048 168.439966,14.9129867 166.452258,13.9094667 C164.463336,12.9059467 163.234991,11.3092 163.234991,8.98333333 C163.234991,7.20626667 164.039308,5.79245333 165.351487,4.65173333 C167.679388,2.73616 171.614708,1.96 175.890223,1.96 C181.434177,1.96 186.088765,2.46306667 191.25243,3.83114667 L191.717767,3.96834667 L190.490638,8.89448 C184.735277,7.57082667 181.51801,7.20626667 177.117353,7.1148 C174.027659,7.06906667 171.911164,7.34216 170.769082,7.70802667 C170.133648,7.93408 169.879717,8.25290667 169.879717,8.61877333 C169.879717,8.98464 170.092338,9.25642667 170.727773,9.48509333 C171.404517,9.71245333 172.547813,10.0338933 178.472055,11.0348 C184.86285,12.17552 186.979345,12.6315467 188.756861,13.3606667 C191.168596,14.3641867 192.608348,16.1882933 192.608348,18.4697333 C192.608348,21.3417867 190.534377,23.4873333 186.936821,24.6711733 C184.735277,25.4029067 181.730632,25.8118933 178.387007,25.8118933 C173.096984,25.8576267 167.510506,25.1272 163.91295,23.8518933 L163.362564,23.66896 L163.362564,23.66896 Z" id="Shape"></path>
                </g>
            </g>
        </g>
    </g>
</svg>