<?xml version="1.0" encoding="UTF-8"?>
<svg width="248px" height="51px" viewBox="0 0 248 51" version="1.1" xmlns="http://www.w3.org/2000/svg" xmlns:xlink="http://www.w3.org/1999/xlink">
    <title>RedBull Logo</title>
    <defs>
        <linearGradient x1="687.77%" y1="-483.43%" x2="7514.88%" y2="-5324.97%" id="linearGradient-1">
            <stop stop-color="#52BCE8" offset="0%"></stop>
            <stop stop-color="#50B6E3" offset="13.72%"></stop>
            <stop stop-color="#4AA4D3" offset="32.37%"></stop>
            <stop stop-color="#3F88BA" offset="53.84%"></stop>
            <stop stop-color="#316097" offset="77.23%"></stop>
            <stop stop-color="#21336E" offset="100%"></stop>
        </linearGradient>
        <linearGradient x1="-22521.56%" y1="42388.59%" x2="-22392.97%" y2="42388.59%" id="linearGradient-2">
            <stop stop-color="#52BCE8" offset="0%"></stop>
            <stop stop-color="#50B6E3" offset="13.72%"></stop>
            <stop stop-color="#4AA4D3" offset="32.37%"></stop>
            <stop stop-color="#3F88BA" offset="53.84%"></stop>
            <stop stop-color="#316097" offset="77.23%"></stop>
            <stop stop-color="#21336E" offset="100%"></stop>
        </linearGradient>
        <linearGradient x1="-22521.56%" y1="42433.21%" x2="-22392.99%" y2="42433.21%" id="linearGradient-3">
            <stop stop-color="#52BCE8" offset="0%"></stop>
            <stop stop-color="#50B6E3" offset="13.72%"></stop>
            <stop stop-color="#4AA4D3" offset="32.37%"></stop>
            <stop stop-color="#3F88BA" offset="53.84%"></stop>
            <stop stop-color="#316097" offset="77.23%"></stop>
            <stop stop-color="#21336E" offset="100%"></stop>
        </linearGradient>
        <linearGradient x1="-22521.55%" y1="42413.29%" x2="-22393.03%" y2="42413.29%" id="linearGradient-4">
            <stop stop-color="#52BCE8" offset="0%"></stop>
            <stop stop-color="#50B6E3" offset="13.72%"></stop>
            <stop stop-color="#4AA4D3" offset="32.37%"></stop>
            <stop stop-color="#3F88BA" offset="53.84%"></stop>
            <stop stop-color="#316097" offset="77.23%"></stop>
            <stop stop-color="#21336E" offset="100%"></stop>
        </linearGradient>
        <linearGradient x1="11.48%" y1="50%" x2="103.65%" y2="50%" id="linearGradient-5">
            <stop stop-color="#1885C8" offset="0%"></stop>
            <stop stop-color="#197FC1" offset="13.24%"></stop>
            <stop stop-color="#1A70AD" offset="32.6%"></stop>
            <stop stop-color="#1C578D" offset="55.73%"></stop>
            <stop stop-color="#1F3461" offset="81.53%"></stop>
            <stop stop-color="#22183D" offset="99.92%"></stop>
            <stop stop-color="#22183D" offset="100%"></stop>
        </linearGradient>
    </defs>
    <g id="Working-Files" stroke="none" stroke-width="1" fill="none" fill-rule="evenodd">
        <g id="Desktop-HD-Copy-6" transform="translate(-1364.000000, -4999.000000)">
            <g id="RedBull-Logo" transform="translate(1364.000000, 4999.000000)">
                <path d="M52.0960608,11.6300971 L51.7607076,11.7902913 C50.5923803,12.6019417 50.3111163,13.6485437 50.4192947,13.7339806 L52.6044995,12.5058252 C55.6984034,11.2242718 60.1769914,9.69708738 61.6590363,9.49417476 C61.604947,9.49417476 55.6443141,9.81456311 52.0960608,11.6300971 M71.3193723,11.1174757 C68.7447251,10.6048544 66.0943529,10.476699 63.4764343,10.7543689 C57.3968051,11.3737864 54.4759868,12.2495146 53.0047598,12.8262136 L49.7485883,13.968932 L48.9697034,14.7912621 L51.3496295,14.5776699 L53.9242767,13.6058252 C54.8654293,13.2854369 55.9255781,12.9757282 57.191266,12.6873786 C63.1627168,11.2776699 72.5958781,11.4699029 71.3193723,11.1174757 M90.9321263,23.1854369 C90.7590407,21.1990291 90.3695983,19.2339806 89.7746168,17.3223301 L89.3851743,16.2330097 C88.6050076,14.2558767 87.5958503,12.3744467 86.3778133,10.6262136 C84.7984078,8.56504854 83.1000061,6.25825243 76.2198563,4.28252427 C82.7646529,5.85242718 83.2514559,6.65339806 84.1060657,7.21941748 L83.1000061,6.25825243 C78.1237971,2.62718447 70.3024948,0.90776699 62.5677353,2.33883495 C67.3924944,0.790291262 75.3219752,0.982524272 80.2765484,4.01553398 C75.0407112,0.77961165 71.2220117,0.363106796 67.5006728,0.0640776699 C66.927327,0.032038835 66.2674384,0 65.5210071,0 C58.8463964,0 50.7762836,3.31067961 46.622231,7.04854369 C46.2544242,7.36893204 45.9407067,7.66796117 45.6702606,7.94563107 C44.3829369,9.43009709 45.2375467,10.4446602 45.8541639,10.7864078 C46.0705208,10.9038835 45.8108925,13.0825243 46.0056138,13.2106796 C46.6763202,13.6485437 49.0346105,10.9252427 50.1055772,10.4553398 C57.3495239,7.32744975 65.3857555,6.44842818 73.1475882,7.93495146 C81.6179613,10.284466 85.2635752,14.2359223 85.4799321,14.5456311 C85.7179247,14.8446602 87.1242446,16.2543689 87.0917911,16.831068 C87.0025478,16.9013573 86.8800019,16.9138724 86.7780736,16.8631068 C86.5405138,16.668084 86.3164441,16.4575811 86.1073671,16.2330097 C86.0638271,16.2146833 86.0236277,16.1894288 85.9883708,16.1582524 C84.5510913,14.9024812 82.9368373,13.8592494 81.1960653,13.061165 C78.5997824,11.9718447 75.6248748,11.6728155 73.0718633,10.9893204 C75.9926816,12.1320388 79.0649497,12.484466 81.8018646,14.0223301 C85.068854,15.8378641 87.4163265,19.084466 87.44878,19.1058252 C89.6556205,21.9572816 90.6833158,25.5349515 90.3263269,29.1019417 C90.3263269,29.1873786 90.3479626,29.2728155 90.3371448,29.3582524 L90.3479626,29.4116505 L90.3479626,29.4330097 C90.2722377,30.1592233 90.1424235,30.8961165 89.9801558,31.6116505 C89.8827952,32.0174757 89.7421632,32.4660194 89.5907134,33 L89.6231669,32.9679612 C90.7372294,29.8309049 91.1828607,26.5004737 90.9321263,23.1854369 M77.8425332,10.5300971 L78.1237971,10.5407767 C78.2319756,10.3485437 76.7607486,9.79320388 76.2198563,9.66504854 C75.473425,9.4407767 74.7161758,9.2592233 73.9481088,9.12038835 C73.9697445,9.12038835 73.6992983,9.21650485 75.3003395,9.72912621 C75.7005997,9.85728155 75.4193358,10.2631068 77.8317153,10.5300971" id="Shape" fill="#F2940A" fill-rule="nonzero"></path>
                <path d="M84.75,22.6 C84.58,22.52 84.41,22.46 84.25,22.4 L84.75,22.6" id="Path" fill="#232E66" fill-rule="nonzero"></path>
                <path d="M88.9333478,28.6796234 C89.2758375,25.0900568 88.2898824,21.489743 86.1726736,18.6202391 C86.1415381,18.5987447 83.8894091,15.3315942 80.7551098,13.5045693 C78.1293557,11.9569717 75.1818688,11.6023139 72.3796807,10.4523629 C74.8290007,11.1401841 77.6934597,11.4411059 80.1635367,12.5373208 C81.8374692,13.3391494 83.389761,14.3890554 84.7715795,15.6540104 L84.8753642,15.7292408 C85.0829337,15.9549321 85.3008817,16.159129 85.5292081,16.3740732 C85.6329929,16.417062 85.7367776,16.4063148 85.8301839,16.3310843 C85.8613193,15.7507352 84.5121176,14.3321041 84.2941696,14.0311824 C84.0658432,13.7195134 81.066464,8.9799958 72.9297398,6.60486339 C62.7173207,4.56289436 54.0409158,8.20619701 50.3461788,9.91500267 C49.3083314,10.4631102 48.7894076,12.494332 49.0800049,12.7415177 C49.3187098,12.9564618 50.3669358,12.3976071 51.9340855,11.2584034 L52.2454397,11.0971953 C55.6599579,9.27017035 61.3784975,8.94775418 61.4303898,8.94775418 C60.0085388,9.16269829 55.7222287,10.6780543 52.7436065,11.9784661 L51.4981895,12.5158264 L50.8028317,13.225142 L53.1276101,12.3008823 C54.5390826,11.7205332 57.3412708,10.8392623 63.1739736,10.2159244 C65.6855645,9.93649709 68.2282908,10.0654636 70.6983678,10.5813294 C71.9230278,10.9359872 62.8729978,10.7425375 57.1440798,12.1611686 C55.9297982,12.4513432 54.9127077,12.7630121 54.0097804,13.0854283 L50.4084497,14.1601488 C50.7820748,14.5577954 52.7436065,17.1263775 53.2936656,17.8571875 L54.2692423,18.4375366 C54.373027,18.5557559 55.203305,18.8674248 55.2863328,18.9963913 L56.427965,18.4375366 C56.6147776,18.6847223 55.3901175,19.297313 55.5457947,19.5122571 C55.7948781,19.8131789 56.5317498,18.4375366 57.7875452,17.620749 C65.0836129,13.751755 70.8021525,13.644283 73.5109344,13.7087662 C73.9883442,13.7410078 74.4553756,13.8162383 74.922407,13.9452047 C75.3271675,14.1601488 71.9437847,14.3213569 72.7636842,14.5792898 C73.4901775,14.794234 75.3686814,14.2891153 75.5658724,14.2568737 C75.6385217,14.2568737 75.711171,14.2461265 75.7734419,14.2138849 C75.8492685,14.1830922 75.9312297,14.1720218 76.0121468,14.1816432 C76.73864,14.170896 77.4443763,14.2031377 78.1604911,14.2891153 C80.1012659,14.7727395 78.2850328,15.0306725 77.6104319,14.8694644 C77.2750151,14.841622 76.9377433,14.8488231 76.6037199,14.8909588 C76.3546365,14.955442 75.8564697,15.0091781 75.6177648,15.0736613 C75.2545182,15.1596389 74.5591604,15.2563638 74.2062922,15.320847 C73.9987227,15.3530886 71.7154583,15.2886054 72.0683264,15.6002744 C72.1513542,15.6110216 73.8326671,15.7077464 74.092129,15.8474601 C74.3723478,15.8797017 74.6421882,15.8797017 74.922407,15.8689545 C75.119598,15.8367129 75.316789,15.8259657 75.51398,15.8367129 C75.6177648,15.8367129 75.7215495,15.8044713 75.8045773,15.739988 C75.9394975,15.6755048 76.0847961,15.632516 76.2404733,15.6540104 C76.365015,15.6540104 76.5725845,15.7184936 76.5310706,15.8152185 C76.1678239,16.7179837 75.5451155,16.6212589 74.4138617,16.5352812 C73.7600178,16.470798 73.0957954,16.4600508 72.4419515,16.5030396 C71.1238852,16.6105117 69.7331696,17.2231024 69.4944647,17.0081583 C69.3284091,16.8684446 71.0304789,16.1806235 70.5634476,16.0838986 C69.7954405,15.9549321 63.817439,18.1581093 63.4957063,19.0178857 L63.5268417,19.0178857 C63.4749494,19.1468522 63.5475987,19.1790938 63.6617619,19.2220826 C63.9731161,19.2865658 65.2289116,18.8136888 65.5402658,18.7921944 C65.9138909,18.8136888 66.0280541,18.6094919 66.3913007,18.6094919 C66.6715196,18.6094919 67.6678531,18.093626 67.948072,18.093626 C68.4669957,18.093626 68.6745652,18.3623062 69.2038674,18.2440869 C69.6293849,18.1366149 70.1690655,18.2010981 70.5842045,18.0506372 C70.9993435,17.9324179 71.404104,17.7604627 71.8088646,17.6529906 C71.9126493,17.620749 72.0060556,17.5992546 72.0994618,17.5562658 L72.5146008,17.4810353 C72.6183856,17.4810353 73.3137434,17.7819571 73.2722295,17.8679347 C74.2062922,18.4267894 74.4553756,18.878172 75.2441397,18.9211608 L75.5658724,18.9211608 L76.1159316,18.8136888 L76.8320463,18.6847223 C77.1770519,18.6473039 77.5248882,18.6473039 77.8698938,18.6847223 C78.181248,18.6847223 78.4822238,18.7921944 78.7831996,18.8351832 C79.1464462,18.8889192 78.7209287,19.136105 78.5860085,19.2113354 C78.1549415,19.487768 77.699748,19.7216518 77.2264284,19.9099038 C76.9358311,20.0603646 76.6244768,20.1248479 76.3027441,20.1248479 C76.1366885,20.1248479 75.9602544,20.1463423 75.7941988,20.2000783 C75.6904141,20.2430671 75.5866294,20.2753087 75.4620877,20.2968031 L75.1507334,20.2860559 C75.0021127,20.2766916 74.8530797,20.2766916 74.704459,20.2860559 L74.5280249,20.339792 L74.3827263,20.3290448 C74.2789415,20.3182976 74.1751568,20.3290448 74.071372,20.3612864 C73.9988573,20.4077303 73.9173624,20.4370834 73.8326671,20.447264 L73.7081254,20.447264 C73.5965474,20.429508 73.482461,20.4405836 73.3760142,20.4795056 C73.0917296,20.5917767 72.7865701,20.6358699 72.4834654,20.6084721 C72.4627085,20.6299665 70.3558781,20.758933 70.3351211,20.7804274 C70.1690655,20.8556578 69.9926315,20.9201411 69.8161974,20.9738771 C69.4529508,21.1565796 69.0689472,21.3177877 68.6849437,21.4682485 C68.5915374,21.5004902 68.539645,21.4789957 68.4566172,21.5004902 L67.7197455,21.7154343 L67.3980128,21.9733672 C67.2527142,22.0808393 67.0866586,22.1453225 66.920603,22.1883113 C66.7856828,22.2098057 66.6611411,22.2635417 66.5262209,22.2850362 C66.4186029,22.3186319 66.3217729,22.381765 66.2460021,22.4677387 C66.1525958,22.5322219 66.0384326,22.5107275 65.9450263,22.5644635 C65.7582138,22.6719356 63.1739736,23.5639536 62.9767826,23.6714257 L62.7276992,23.7788977 C62.6031575,23.8433809 62.4889943,23.9293586 62.374831,24.0153362 C62.3056179,24.1466675 62.2870737,24.3002918 62.3229387,24.4452245 L62.3021817,24.4452245 L62.3229387,24.4452245 L62.3229387,24.4989605 C62.5512651,24.5634437 62.78997,24.5741909 63.0182965,24.5204549 C63.1013243,24.5204549 63.1947305,24.4989605 63.2777583,24.4667189 C63.4023,24.4344772 63.5060848,24.4344772 63.6306265,24.42373 C63.88808,24.3687342 64.1340609,24.2668461 64.3571197,24.1228083 C67.1489294,23.477976 71.7881076,21.4789957 76.3961504,21.1565796 C76.4480428,21.1565796 81.2532766,20.9416355 84.4809822,22.4892331 C85.4358019,22.9513629 89.9089245,25.5414394 88.1134483,32.9355168 L88.1134483,33 L88.1030699,33 L88.23799,32.6238478 L88.2483685,32.5701118 L88.2276116,32.5916062 C88.3729102,32.0757403 88.5078304,31.6136105 88.6012367,31.1944695 C88.7555286,30.4741136 88.8733123,29.7458903 88.9541048,29.0127868 L88.9541048,28.9375563 C88.9541048,28.8515787 88.9229694,28.765601 88.9333478,28.6796234 M73.2307156,8.57160199 C73.9572088,8.71131566 74.6837021,8.89401816 75.3998168,9.11970947 C75.9187405,9.25942314 77.3302131,9.80753062 77.2264284,10.0009803 L76.9462095,9.99023311 C74.6318097,9.72155298 74.90165,9.31315917 74.5176465,9.1841927 C72.9816322,8.66832684 73.2410941,8.57160199 73.2307156,8.57160199 M71.642809,18.9426553 L71.8503785,18.8351832 C70.9682081,18.8566776 70.0860378,19.0286329 69.2557598,19.3295547 C68.7887284,19.5015099 68.3528325,19.7379485 67.948072,20.028123 C67.8442872,20.2215727 68.0829921,20.339792 68.124506,20.3505392 C68.8198638,20.4902528 68.8613777,20.2538143 71.642809,18.9534025" id="Shape" fill="#FAD50A" fill-rule="nonzero"></path>
                <path d="M77.0034621,30.958209 C77.2285681,30.8186959 77.4937868,30.834433 77.70777,31 C78.3793194,29.9134328 79.0836273,29.4955224 79.6896597,28.3253731 L80.2629336,27.1761194 C80.7706904,26.0059701 80.8198282,24.8776119 81,24 L80.8853452,24.2507463 C80.8443971,24.3029851 80.6068979,25.6402985 80.0581929,25.6402985 C79.8780211,25.6402985 79.4357813,25.5358209 79.4931087,25.2641791 C79.0836273,27.0716418 77.8306144,27.8761194 77.290099,29.3701493 C77.8306144,29.6940299 76.9379451,30.4358209 77.0034621,30.958209 L77.0034621,30.958209 Z" id="Path"></path>
                <path d="M52.465,38.505 C52.4782998,38.5036633 52.4917002,38.5036633 52.505,38.505 L52.535,38.495 C52.5147129,38.4962919 52.4946095,38.4996425 52.475,38.505 L52.465,38.505 Z" id="Path" fill="url(#linearGradient-1)" fill-rule="nonzero"></path>
                <path d="M81,41 C79.8419407,41.8174957 78.6723961,42.6172344 77.4917453,43.398957 C73.7629717,45.8604954 69.8136792,47.9986962 65.2228774,48.8226858 C64.821934,48.8956975 64.4209906,48.9478488 64.0100236,49 L64,49 C67.5383255,48.7079531 69.5630896,48.4367666 72.9310142,46.7574967 C75.9080189,45.2659713 79.40625,42.4080834 81,41 L81,41 Z" id="Path" fill="url(#linearGradient-2)" fill-rule="nonzero"></path>
                <path d="M50.8581777,39.2999049 C51.1624195,39.5128183 51.4771523,39.6937947 51.8023763,39.8641254 C54.4776055,41.3119363 58.3698018,42.0784245 56.4814047,41.194834 C52.5157707,38.9273065 55.3903308,40.4283458 58.8628832,41.258708 C61.414731,41.8913638 64.0474228,42.1211686 66.6682579,41.9400308 C70.7912582,40.3218891 74.295284,38.0011333 76.2571187,35.7974798 C75.8689482,36.0636216 75.4597955,36.2978263 75.0401517,36.500094 C74.9876962,36.5213853 71.0430445,37.6711176 76.1941722,33.9131964 C80.0863684,31.0814485 82.8560175,27.3128817 83.8946359,22.543622 C83.9680735,22.3094173 84.0834756,22.0858582 84.2303509,21.8835905 L84.6395036,22.0432756 C84.3247708,23.5656062 83.9785646,24.8430865 83.5484297,26.3334801 C83.9366003,25.8437794 84.1569133,25.69474 84.5345927,25.2156849 C83.6428496,28.7074643 81.5236484,31.0495115 79.2156075,33.636409 C78.5966329,34.3390232 80.1178417,33.5938264 78.7959637,35.0416373 C79.1106966,34.6903303 79.0372589,34.8819523 79.2890452,35.0097003 C80.3381547,33.668346 82.0377121,33.5938264 82.9924017,32.1353697 C85.4787912,28.2816376 86.3495521,26.1418581 86.9475445,23.7252912 L87,23.7891653 L87,23.7572283 C86.4076711,23.108841 85.7126705,22.5655179 84.9437454,22.1497322 C83.8602432,21.6048588 82.6928952,21.2520149 81.4921751,21.1064567 C81.2651913,21.0688708 81.0378748,21.0333838 80.810254,21 C79.1421698,25.0134172 78.9113658,27.8025825 75.2289914,30.0168816 C71.1374644,32.7208815 73.6972915,32.028913 73.7392559,32.0076217 C74.0539888,31.8798737 74.3582305,31.709543 74.6414901,31.5179209 C73.0678258,34.0941728 70.2876857,35.7336058 66.9829907,36.468157 C66.9095531,36.7130074 65.7660237,36.6810704 65.5666929,36.8514011 C65.4093265,37.0749601 65.1575402,37.2133538 64.8847717,37.2239995 C65.0001738,37.5753065 64.2028506,37.7030546 63.9720465,38.0224246 C63.6573136,38.4482514 64.2448149,38.6292278 63.5419116,38.6611648 L62.9753925,38.363086 C60.4365475,38.363086 59.387438,37.5859522 58.5691326,36.8514011 L56.8800663,36.8939837 C56.6072978,37.0962514 55.7365369,37.0856058 55.1385445,37.3411018 C54.9986865,37.3340393 54.8638493,37.2859661 54.750374,37.2027081 C54.4985877,37.0749601 54.2153281,36.9472121 54.0999261,37.2027081 C53.9635419,37.5007869 53.4389871,37.2239995 53.2186741,37.1814168 C53.092781,37.2452908 52.2744756,37.6178892 52.4633153,37.6498262 C51.5191167,37.4901412 51.8443407,37.7882199 50.9525976,38.0969443 L50.0923278,38.1288813 C49.8825059,38.1927553 49.9874168,38.7463301 50.8581777,39.2999049 Z M77.3481926,30.0594643 C78.0406049,28.5371336 79.6457424,27.7174171 80.1702972,25.8757164 C80.0968595,26.1525038 80.6633786,26.2589605 80.8941827,26.2589605 C81.5970861,26.2589605 81.9013278,24.8963148 81.9432922,24.8430865 L82.1111497,24.5875904 C81.8698545,25.4818266 81.806908,26.6315589 81.1564601,27.8345195 L80.4220834,28.9948974 C79.6457424,30.1872123 78.7435082,30.6130391 77.8832384,31.7201886 C77.6091212,31.5514853 77.2693702,31.5354501 76.9810043,31.677606 C76.8970755,31.1453225 78.0301138,30.4001257 77.3481926,30.0594643 L77.3481926,30.0594643 Z" id="Shape" fill="url(#linearGradient-3)" fill-rule="nonzero"></path>
                <path d="M70.9875821,45 C69.1965226,45.453165 67.4076419,45.9143979 65.620998,46.3836838 C63.7194525,46.8961592 61.6700089,47.6136249 55.8914233,47.0908999 L55.7857818,47.0908999 C54.9617788,47.193395 54.1166474,47.2241435 53.2715161,47.1626465 C52.447513,47.1113989 50.9790973,46.8859097 51.0002255,46.8961592 C51.031918,46.8961592 51.3171498,47.0089038 51.5601251,47.1011494 L51.5389968,47.1011494 C51.5389968,47.1011494 52.2784867,46.9986543 54.8772656,47.5111298 C55.9019874,47.71612 56.916145,47.7673675 57.9725592,47.8903616 L58.0359441,47.8903616 C58.8071265,47.9928567 59.588873,48.0133557 60.3600553,47.9928567 C62.272165,47.8903616 64.1631464,47.5828763 65.990743,47.0704009 C69.0332159,46.2299411 71.2516857,45.1229941 70.977018,45.0102495 L70.9875821,45 Z" id="Path" fill="url(#linearGradient-4)" fill-rule="nonzero"></path>
                <path d="M89.9895388,28.2717024 L89.9790775,28.1364149 L89.9476938,27.7305524 L89.9476938,27.6065389 C89.9292772,27.4708151 89.9083506,27.3355007 89.8849263,27.2006764 L89.874465,27.0992108 C89.8498886,26.9481979 89.821984,26.797836 89.7907751,26.6482525 L89.7384689,26.4114994 L89.6861626,26.2085682 C89.6494665,26.0689966 89.6111054,25.9299396 89.5710889,25.7914318 L89.4664765,25.5208568 C89.4215107,25.387704 89.3726674,25.2561094 89.320019,25.1262683 C89.320019,25.1037204 89.320019,25.0811725 89.2990965,25.0586246 L89.1631003,24.7542277 C88.8550924,24.0981062 88.4643204,23.4910718 88.001902,22.9503946 C87.3951498,25.5095829 86.5373276,27.7756483 84.0580124,31.8568207 C83.106039,33.4013529 81.4113172,33.4802706 80.3651926,34.9007892 C80.1141227,34.7655017 80.1873514,34.5625705 79.8630528,34.934611 C81.191631,33.4013529 79.6747504,34.1905299 80.2919639,33.4464487 C82.5934379,30.7068771 84.7066096,28.2266065 85.5958155,24.5287486 C85.2192107,25.0360767 84.9995245,25.1939121 84.6124584,25.7125141 C85.0413695,24.1341601 85.3761293,22.7812852 85.700428,21.1691094 L85.2924394,21 C85.1459819,21.2142052 85.0309082,21.4509583 84.9576795,21.6989853 C83.9115549,26.7497182 81.1602473,30.740699 77.2791251,33.7395716 C72.1426534,37.7080045 76.0760818,36.5016911 76.128388,36.4791432 C76.5468379,36.264938 76.9652877,36.0281849 77.3418925,35.735062 C75.3856396,38.0800451 71.9020447,40.5264938 67.7803138,42.2401353 C60.8340466,45.1262683 52.1198288,45.9154453 46,40.5490417 C47.3390395,42.0033822 48.8245364,43.3111612 50.4041845,44.4385569 C49.4835949,44.2694476 48.8349976,43.5028185 47.956253,43.1984216 C47.9771755,43.2435175 50.0694246,46.1860203 56.3461721,46.9639233 L57.6015216,47.0992108 C63.3238231,47.6629087 65.3533048,46.8737317 67.2258678,46.3100338 C68.9956994,45.8036339 70.7671476,45.3038189 72.5401807,44.8105975 C72.8121731,44.9233371 70.6153115,46.1521984 67.6024727,47.065389 C65.7926771,47.6290868 63.9201141,47.9785795 62.0370899,48.0800451 C61.2629577,48.113867 60.4888255,48.0800451 59.7356158,47.9898534 L59.6623871,47.9898534 C58.6162625,47.843292 57.6119829,47.7869222 56.597242,47.5614431 C54.0133143,46.9977452 53.2914883,47.1104848 53.2914883,47.1104848 C53.2914883,47.1104848 53.6785544,47.3359639 57.235378,48.7113867 C57.0156919,48.8015784 55.959106,48.9481398 51.5863053,46.9301015 C51.6281503,46.9639233 56.8273894,49.6358512 59.7983833,49.951522 C62.0370899,50.1882751 64.2862577,50.1093574 66.4935806,49.7034949 C71.2848312,48.8128523 75.4065621,46.5016911 79.2981455,43.8410372 C80.6685687,42.9165727 82.0180694,41.9357384 83.3466476,40.9774521 L83.3257252,41.0901917 L83.6081788,41.1352875 C83.5558726,41.2931229 83.5558726,41.2931229 82.8235854,42.2401353 C84.4136947,40.8534386 85.2296719,38.6888388 86.934855,37.3810598 C86.80932,37.7192785 86.6524013,38.0462232 86.4536377,38.3393461 L86.296719,38.5873732 C85.4285589,39.9490087 84.436829,41.2141666 83.3361864,42.3641488 L83.2315739,42.4768884 L82.8968141,42.7925592 C79.1852909,46.4835696 74.6403386,49.0608715 69.7156443,50.2671928 C70.1654779,50.210823 70.6257727,50.1093574 71.0756063,49.9740699 C70.2700903,50.222097 70.2387066,50.2446449 69.9039467,50.3686584 L71.2116025,50.0980834 C70.5734665,50.4363021 69.830718,50.5941375 68.041845,51 C74.4859724,49.7936866 79.8421303,46.8511838 83.7650975,42.4543405 C83.9429387,42.2626832 84.9995245,41.0338219 85.3447456,40.5828636 C86.9725896,38.5716058 88.2581333,36.2663977 89.1421778,33.7733935 C89.320019,33.2435175 89.4769377,32.7023675 89.5920114,32.1386697 C89.6338564,31.9808343 89.6757014,31.8229989 89.6966239,31.6651635 C89.8640038,30.6279594 89.874465,30.6279594 89.9476938,30.0191657 L89.9476938,29.9853439 C89.9817825,29.5993513 89.9992367,29.2118622 90,28.8241263 L90,28.7113867 L89.9895388,28.2604284 L89.9895388,28.2717024 Z" id="Path" fill="url(#linearGradient-5)" fill-rule="nonzero"></path>
                <path d="M65.6260503,36.6455042 C65.0056917,36.2601231 64.4986396,35.7132217 64.1577071,35.0617639 C64.021361,34.8491813 63.9059912,34.6047113 63.7906213,34.3814996 L63.643787,34.1264005 C63.4191146,33.7003767 63.1482429,33.301086 62.8361983,32.9359379 L62.5425296,32.6170641 L62.2908137,32.3300776 C62.2313864,32.2594228 62.1819662,32.1807187 62.1439793,32.0962367 C60.8434468,28.7268026 60.53929,26.8241885 60.0673226,23.4866418 C59.8260948,21.7540937 58.7877664,20.3616777 57.0991717,18.2783683 L56.3964646,17.3855214 L55.8720563,16.6839989 C55.4525297,16.1312841 54.9910504,15.6104568 54.5085948,15.1108877 L52.8829291,13.7184717 L51.0789647,12.1772479 C50.2166624,11.4538994 49.3206442,10.7728536 48.3939943,10.136455 C47.2263229,9.30393227 45.8361296,8.8516083 44.4084914,8.83970124 C43.4221933,8.81766485 42.4480497,9.06355642 41.5871748,9.55185292 C40.6222636,10.2533755 39.5839352,10.8486067 38.4826778,11.3162884 C37.7485062,11.6351623 36.9828701,11.8796323 36.0179589,12.1985062 L35.0215832,12.5386383 C34.1091128,12.8575122 33.2805477,13.3889687 32.5988169,14.0798621 L32.221243,14.4518816 C32.0955847,14.5797887 31.9661726,14.7038509 31.8331808,14.8239012 C31.6653702,14.9939673 31.4660951,15.1427751 31.2563317,15.2384372 C30.9836394,15.3128411 30.7109471,15.3553577 30.4277667,15.3659868 L29.8194531,15.3978742 L29.3789501,15.4191324 C28.1203702,15.4935363 27.1135063,16.205688 26.4632401,16.7477736 C26.1171306,17.0347601 25.8129738,17.3217466 25.4983288,17.598104 L25.3619827,17.7362827 C25.0683141,18.01264 24.7641573,18.2677392 24.4390241,18.50158 C23.54753,19.0861821 22.7084768,19.1712152 21.7750301,19.2668773 C21.2715981,19.3093939 20.7786543,19.3731686 20.2857106,19.4794599 C19.6564206,19.6070095 19.048107,19.8089629 18.4607697,20.0959494 C17.7056218,20.467969 16.9714502,20.9143924 16.2792313,21.4139615 L15.1989503,22.2005171 L14.2759917,22.8807814 C12.8810657,23.8692904 11.6854148,24.5282965 10.3953704,24.5282965 C9.11581422,24.5282965 8.20334382,23.7736283 8.087974,22.5937949 C7.97260418,21.5627693 8.49701246,20.5211146 9.55631718,19.649526 L10.1331663,19.1712152 C10.5631811,18.8204539 10.9722195,18.4909509 11.3288172,18.172077 C11.8322491,17.7469118 12.2832402,17.2898592 12.6922787,16.7902901 C13.4773927,15.7939438 13.7212243,14.4667308 13.3425449,13.25079 C13.0279,11.9965527 12.0839651,11.1462223 10.4478113,10.6572824 C9.87951678,10.4954414 9.30145126,10.3711734 8.71726393,10.2852629 L8.52847695,10.2427463 C8.37331866,10.2273365 8.21921443,10.2024904 8.06699767,10.1683424 C7.93852178,10.1482043 7.81213589,10.1161831 7.68942371,10.0726803 C6.58225858,9.48201173 5.51058894,8.82539885 4.48004504,8.1062913 L4.32272256,8 L4.2178409,8.15943694 C3.86124327,8.66963516 3.58855097,9.07354209 3.37878766,10.8592359 C3.14804802,12.8256248 4.74224918,15.2278081 7.50063673,15.6636024 C7.65795921,15.6848607 7.7838172,15.8017811 7.81528169,15.961218 C7.85723436,16.1100259 7.81528169,16.2800919 7.68942371,16.365125 C4.77371368,18.6929043 4.15491191,19.6920425 4.00807759,22.2961793 C3.90554377,23.9004089 4.45939027,25.4766352 5.53934977,26.6541224 C6.83491827,27.959909 8.61213213,28.6541231 10.4373231,28.5673657 C11.0275665,28.5638516 11.6166588,28.5141008 12.1993349,28.4185579 C12.4090982,28.4185579 12.5769089,28.5779948 12.587397,28.7799483 C12.7342313,30.5975294 13.0488763,32.0749785 13.4579148,32.7233554 C13.5627964,32.8934214 13.5313319,33.106004 13.3949858,33.2335536 C13.2271751,33.3823614 13.0279,33.4886527 12.8181367,33.5630566 C12.0148691,33.8408769 11.1706473,33.9774802 10.3219533,33.9669635 C9.73461599,33.9669635 9.29411304,34.3814996 8.94800358,35.2530882 C8.83263375,35.5400747 8.73824026,35.8483194 8.65433494,36.1353059 L8.62287044,36.220339 L8.48652429,36.634875 C8.45505979,36.7411663 8.41310713,36.8368285 8.3606663,36.9324907 C8.22432015,37.1663315 8.04602134,37.3895432 7.83625803,37.5702384 C7.76355886,37.6339274 7.67012792,37.6680146 7.57405389,37.6659006 L7.50063673,37.6659006 C7.38268708,37.6404954 7.28242873,37.5623371 7.22794442,37.453318 C6.94449808,36.9428007 6.45327715,36.5849904 5.88545923,36.4754381 L5.81204207,36.4754381 C4.48733733,36.5963141 3.33320489,37.4399252 2.80193855,38.6756679 C2.74914653,38.8094039 2.62843696,38.9031917 2.48729359,38.9201379 L2.41387643,38.930767 C1.77409833,38.9520253 1.20773739,39.3771905 0.997974075,39.9830508 C0.893092419,40.2594082 0.830163426,40.5357656 0.788210763,40.8333812 L0.735769935,41.0247055 C0.704305439,41.2372881 0.662352776,41.4817581 0.599423783,41.6943407 C0.557471121,41.8644068 0.494542127,42.0344729 0.400148637,42.1939098 L0.27429065,42.4277506 L0.169408995,42.5871876 C-0.00888982,42.9273197 -0.0508424823,43.3312267 0.064527339,43.7032462 C0.148432664,43.9796036 0.347707809,44.1921862 0.609911949,44.3091066 C0.882604253,44.4472853 1.17627289,44.5535766 1.48042969,44.6279805 C1.92093264,44.7342718 2.37192376,44.8086757 2.83340305,44.8299339 C2.91730837,44.8299339 3.0012137,44.7980465 3.08511902,44.75553 L3.26341784,44.6279805 C3.3515678,44.555525 3.46601843,44.5245946 3.5780628,44.5429474 L3.87173144,44.5960931 L4.71078469,44.7661591 L4.75273735,44.7661591 L5.53934977,44.9255961 L5.85399473,44.9893709 L6.06375804,45 C7.29087342,44.9362252 7.80479353,44.4579144 8.15090299,43.9902327 C8.24529648,43.8626831 8.33968997,43.7138753 8.4235953,43.5650675 L8.55994145,43.3312267 L8.66482311,43.1505315 C8.76970476,42.9804654 8.86409825,42.8210284 8.97946807,42.6615915 C9.04239707,42.5553002 9.16825505,42.5021546 9.29411304,42.5021546 L9.3989947,42.5127837 L9.79754499,42.6084458 L10.4478113,42.6828498 L10.6890391,42.6828498 C11.8532254,42.6828498 12.7237432,42.0344729 13.4369384,41.4073542 L13.6781662,41.2054007 L13.9928112,40.9290434 C14.17111,40.7802356 14.3389207,40.6420569 14.5277077,40.5251365 C14.8004,40.3125539 15.1255331,40.1850043 15.4716426,40.1743752 L15.5345716,40.1743752 C16.6591694,40.2476663 17.7793566,40.3789287 18.8907845,40.567653 C19.4151928,40.5357656 19.9396011,40.3975869 20.4115685,40.1531169 C20.9045123,39.9192761 21.3869679,39.6535478 21.8589354,39.3559322 C21.9847934,39.2708992 22.1211395,39.2071244 22.2574857,39.1433496 L22.2994383,39.1327205 L22.7609176,38.9095088 C23.1744019,38.708464 23.5395223,38.4182463 23.8307105,38.0591784 C24.113891,37.6340132 24.3551188,37.1769606 24.5648821,36.7092789 L24.8585507,36.1034186 L25.3619827,35.0617639 C25.4353999,34.9235852 25.571746,34.8491813 25.7185803,34.8491813 L25.823462,34.8491813 C26.4317756,34.827923 27.029601,34.7641482 27.6169383,34.6684861 L28.3511099,34.5621948 C28.8964945,34.4665326 29.3474856,34.3921287 29.6935951,34.3814996 C29.7775004,34.3814996 30.00824,34.3921287 30.3123968,34.4240161 L31.0151039,34.4665326 C32.0696775,34.5308436 33.1266456,34.5450314 34.1825299,34.5090491 C34.7740605,34.4777118 35.3575101,34.35587 35.9130773,34.1476587 C36.0179589,34.1476587 36.1228406,34.1901752 36.1857696,34.25395 C36.3745565,34.4559035 36.5843199,34.6472278 36.7940832,34.8385521 C36.9199411,34.9448434 36.9618938,35.1042804 36.909453,35.2637173 C36.85982,35.412155 36.7279579,35.5165569 36.5738317,35.5294456 L36.343092,35.5507038 C35.9903013,35.5772681 35.658834,35.7320189 35.4096453,35.9864981 C35.334824,36.0849306 35.2175012,36.1404172 35.0950003,36.1353059 C35.0452218,36.1366819 34.9955733,36.1294939 34.948166,36.1140477 C34.7926033,36.0452979 34.6249275,36.0091427 34.4552222,36.0077564 L33.9517903,36.0077564 C33.3225004,36.0077564 32.6932104,36.0396438 32.0639205,36.1353059 C31.6863465,36.1778225 31.3297489,36.2947429 31.0151039,36.4541798 C30.7132565,36.5946614 30.5233632,36.9042477 30.5326483,37.2407354 C30.574601,37.9847745 31.6129294,40.0043091 32.3156365,40.7164608 C32.6512578,40.9290434 33.0393199,41.0353347 33.427382,41.0034473 L33.6266572,41.0034473 C33.7734915,41.0034473 33.8993495,41.0778512 33.9727666,41.2160299 C34.69645,42.6509624 35.9445418,43.6288423 37.0877518,43.6288423 L37.161169,43.6288423 C38.2519382,43.5756966 41.1886245,42.5021546 43.244305,41.5136455 L43.3282103,41.4923872 L43.5379736,41.4498707 L43.9575002,41.3967251 L44.1672636,41.3754668 C44.6182547,41.3435794 45.0692458,41.2372881 45.5097487,41.0565929 C45.8558582,40.8865269 46.3592902,40.2275208 46.7893049,39.3771905 C46.8522339,39.2496409 46.9990683,39.1646079 47.1354144,39.1646079 L47.1668789,39.1646079 C47.3346896,39.1858661 47.4605475,39.2921574 47.5129884,39.4515944 C47.554941,39.6110313 47.61787,39.7704683 47.6912872,39.9086469 C48.0478848,40.5782821 48.6771748,40.9184142 49.5581807,40.9077851 L49.705015,40.9077851 C50.3343049,40.8546395 50.9635948,40.7164608 51.5614203,40.4826199 L51.8865534,40.3763286 C52.3480327,40.2062626 52.8200002,40.0680839 53.3024558,39.9724217 C53.5795102,39.9247945 53.8611486,39.9105233 54.141509,39.9299052 L54.6973818,39.9724217 L55.0749557,39.99368 C55.2532546,40.0149382 55.4420415,40.0255674 55.6413167,40.0255674 C56.102796,40.0361965 56.5537871,39.9511635 56.9733137,39.7598391 C57.4243048,39.5578857 57.8438315,39.3134157 58.2318936,39.0158001 L58.3367752,38.930767 C58.4048009,38.8835215 58.4850575,38.8576421 58.5675149,38.8563631 C58.6619084,38.8563631 58.7458137,38.8988796 58.8192309,38.9626544 C60.1647554,40.1666577 61.9013188,40.8252021 63.6962278,40.812123 L63.9479438,40.812123 C64.4303994,40.8333812 64.9023669,40.6314278 65.2275,40.2594082 C65.3953107,40.0468256 65.4372633,39.7598391 65.3743343,39.50474 C65.3427919,39.3957329 65.3593,39.2782281 65.4196089,39.1824743 C65.4799178,39.0867204 65.5781359,39.0220719 65.6889793,39.0051709 C66.0350888,38.9520253 66.3707101,38.8032175 66.6434024,38.5800057 C66.8515263,38.3960521 66.9796631,38.1363341 67,37.8572249 C67,37.697788 66.937071,37.538351 66.8217012,37.4320598 C66.4651036,37.1131859 66.0560651,36.8580868 65.6260503,36.6561333 M48.2786245,33.594944 C48.0164203,33.9350761 47.61787,34.0307383 47.2507842,34.6897443 C46.5166126,34.3921287 46.3907547,33.4142488 46.2544085,32.9890836 C46.8417458,32.8827923 48.2156955,32.6170641 48.9393789,32.5107728 C48.6561984,32.8296467 48.4359469,33.1910371 48.2786245,33.594944" id="Shape" fill="#FFFFFF" fill-rule="nonzero"></path>
                <path d="M63.1398862,36.4296979 C61.8055292,35.6366265 61.2738714,34.1456522 60.4503229,32.9719064 C60.1584323,32.548935 59.6476238,32.2634292 59.3765826,31.8404578 C58.4175135,29.1968863 57.6043897,26.5533148 57.3437731,23.5396433 C57.1926184,22.7687233 56.9401744,22.0218604 56.5931973,21.3190432 C55.3839363,19.3416517 53.8202367,17.5334488 52.3190851,15.7146716 L51.8916738,15.2705516 L46.6063692,10.8293515 C45.9496154,10.3746572 45.2407383,9.9834086 44.4901625,9.68732859 C43.2766298,9.28200759 41.9601382,9.33077171 40.7789821,9.82479431 C39.6426937,10.4381029 38.6210767,11.3157686 37.4222403,11.7281658 C35.6917461,12.5212372 33.7319093,12.6798515 32.2411823,14.0333601 C31.3655106,14.7947087 30.6357841,15.9896031 29.3431258,15.7886916 C27.9406955,15.7408765 26.5728702,16.236127 25.5172741,17.1739231 C24.5373557,18.0727374 23.6095606,19.1407403 22.3377516,19.3945232 C21.2223126,19.870366 19.8671062,19.6377317 18.7308179,20.0712775 C16.9377757,20.5259718 15.4991721,21.9746489 13.9771711,23.084949 C12.4447455,23.9837633 10.9748679,24.9565976 9.05672975,24.9143005 C7.76407142,24.8085576 6.65905704,23.9626147 6.21079649,22.7254233 C5.81642798,21.3455512 6.25719475,19.8593811 7.3366602,18.9292546 C8.47294857,17.5545974 10.2764154,16.7403774 11.1625119,15.1542345 C11.6316217,14.2025487 11.5482244,13.0393773 10.9435939,12.1722858 C9.75518223,10.9350943 8.06638667,10.8927972 6.53396107,10.5121229 C5.55404266,10.2371915 4.7930422,9.47584287 3.92779509,9 C3.61505517,9.50756573 3.46910988,10.1103 3.5212332,10.7130343 C3.74959433,12.1761385 4.73774746,13.4007665 6.10654985,13.917043 C6.88839965,14.2554202 7.77449608,14.0122116 8.5771952,14.1814002 C8.82738714,14.287143 8.99418176,14.4986287 9.04630508,14.7524116 C9.04630508,14.9850459 8.94205844,15.1965316 8.78568848,15.3657202 C7.53472881,16.4231488 6.22122116,17.4382802 5.17875476,18.7494917 C4.06331572,19.9655346 3.93821975,22.1121147 4.52200093,23.6453861 C5.26055424,25.3759551 6.85500968,26.5738354 8.70229117,26.7859491 C9.97410017,26.9974348 11.0999639,26.6484834 12.2675262,26.3947005 C12.3958087,26.4290557 12.5003166,26.523285 12.5489922,26.6484834 C12.6636635,27.6847634 12.5072935,28.6047263 12.7366361,29.556412 C12.9451294,30.3600578 13.2161707,31.1425549 13.5393352,31.9039035 C13.5973425,32.2033044 13.5209258,32.5133585 13.330842,32.7498464 C12.7053621,33.2045407 12.027759,33.5957893 11.3084572,33.9024436 L9.57796294,34.0081864 L9.2443737,34.1668007 C8.59804453,34.9387236 8.5771952,35.7317951 8.18105797,36.5988865 C7.64940011,37.4871265 6.6694817,37.9206723 5.84593325,38.4388123 C5.59080944,38.8898564 5.27504048,39.302689 4.9077135,39.6654295 C4.61582291,39.8980638 4.26138434,40.0355295 3.88609643,40.0461038 C3.29189059,40.7440066 3.15636996,41.716841 3,42.6685267 C3.97991841,42.7636953 5.00153548,43.3029839 5.96060456,42.7636953 C6.78415301,42.3724467 6.96137229,41.3573152 7.57642747,40.7440066 C8.06638667,40.2047181 8.80653781,40.6065409 9.39031899,40.7228581 C10.2555661,40.7651552 10.8810459,40.130698 11.6107724,39.834618 C12.1215809,39.4962409 12.5385675,38.9040809 13.0702254,38.5657037 C14.1022671,38.0687123 15.5200214,38.3436437 16.5937618,38.5445551 C17.4277349,38.7560409 18.292982,38.650298 19.0644071,38.3013466 C19.7524349,37.8678008 20.3987641,37.317938 21.1701892,37.1381751 C21.8582171,36.7786494 22.202231,35.9855779 22.4836969,35.3405465 C22.7130395,34.7272379 23.286396,34.251395 23.2446974,33.5429179 C23.0674781,33.3948779 22.8589848,33.0459264 22.5983682,33.0776493 C22.2647789,33.5429179 22.014587,34.0399093 21.6392991,34.5051779 C20.0339009,36.7257779 18.7620919,36.9372637 15.4991721,36.9372637 C13.122521,36.754813 10.7991539,37.7139407 9.22352437,39.5279637 C9.10187261,39.5821704 8.9597341,39.5524866 8.86908579,39.4539437 C8.86908579,39.1367152 8.96290777,38.8089123 9.14012706,38.5339809 C10.6204293,36.3874008 12.9451294,35.8904094 15.3949254,35.8375379 C16.6871849,35.7967076 17.9574199,35.4871877 19.1269551,34.9281493 C20.3348375,34.304008 21.2818016,33.2609047 21.7956691,31.9884978 C22.077135,30.5715435 22.1918063,29.0276977 22.5462449,27.6741891 C22.6609162,27.5261491 22.8485601,27.4627034 23.0257794,27.483852 C23.2134234,27.5050005 23.3697933,27.6213177 23.442766,27.7905063 C23.192574,29.186312 22.7443135,30.8359006 23.286396,32.1894092 C24.3497117,33.6169379 26.3303979,32.845015 27.7794262,32.770995 C29.1763311,32.6864007 30.5732361,32.7075493 31.9492917,32.845015 C32.6685936,32.8238664 33.2002514,33.0036293 33.7527586,32.548935 C33.9091286,32.2845778 33.9612519,31.9884978 33.9195532,31.6924178 C33.8778546,31.2800206 33.5442653,31.0368121 33.9195532,30.6984349 C34.0979082,30.6193372 34.3052989,30.652336 34.4512111,30.7830292 C34.6597044,31.3434664 34.7431017,31.9462007 35.0975403,32.4537664 C35.8550062,33.3596303 36.7882903,34.0975362 37.8392269,34.621495 C38.7774466,35.2771008 39.5488718,36.1970636 39.6114197,37.3496608 C39.6218444,37.9418208 39.0901865,38.3436437 38.641926,38.6185751 C37.8913502,39.0521209 37.0365277,39.2636066 36.1712806,39.2213095 C34.9932936,38.6397237 34.6805537,37.3813837 33.8987039,36.4508465 C33.5025667,35.9961522 32.8979362,35.9221322 32.3037303,35.9538551 C31.6782505,35.9855779 31.042346,36.0807465 30.4272908,36.2499351 C30.2844827,36.3936506 30.2185354,36.5982672 30.2500715,36.799798 C30.6566334,37.539998 31.0944693,38.2590494 31.5427299,38.9992494 C32.063963,39.316478 32.7728402,38.8194866 33.2106761,39.3799237 C33.5963886,39.982658 33.8361559,40.6699866 34.4199371,41.1246809 C35.0037183,41.6533952 35.8272667,41.8120095 36.5569932,41.5370781 C38.2249394,41.0612352 39.8407623,40.4162038 41.3836126,39.6337066 L41.9048458,39.6337066 C42.519901,39.5702609 43.2079288,39.6019837 43.6457647,39.1261409 C44.1252992,38.4388123 44.5527104,37.7091865 44.9175737,36.9584122 C45.2928616,36.4402722 45.126067,35.6577751 44.9592723,35.0867636 C44.267488,34.1489309 43.7321862,33.1022563 43.3747234,31.9884978 C42.9994355,31.882755 42.6658463,31.6501207 42.238435,31.6712692 C42.0403664,31.7664378 41.7589005,31.7241407 41.6442292,31.9462007 L43.4059974,35.4674379 C43.5519427,35.7846665 43.6144907,36.1441922 43.5832167,36.4931437 C43.355342,37.2588253 42.9350151,37.9512044 42.363531,38.502258 C42.2592844,38.5657037 42.1133391,38.6291494 42.0299418,38.4811094 C42.2280104,37.7091865 42.582449,36.873818 42.5407503,35.9961522 L40.8206808,32.8555893 C40.6121875,32.4326178 40.2681736,32.0413692 40.2890229,31.5443778 C40.3098722,31.3328921 40.4558175,31.1425549 40.6643108,31.0685349 C41.4148866,30.8253263 42.332257,30.8570492 42.9056135,30.2543149 C43.666614,29.0594206 43.822984,27.8856748 44.0210526,26.4581462 C44.0940252,26.3206805 44.2295459,26.2255119 44.3754912,26.1937891 C44.5214364,26.2043634 44.6569571,26.2995319 44.7299297,26.4158491 C44.9835952,27.9423411 44.6312958,29.5086243 43.7500113,30.7724549 C43.6597727,30.9285066 43.6902776,31.1274242 43.822984,31.2482978 C44.6673817,31.5126549 45.5639028,31.2482978 46.27278,30.8570492 C47.1380271,30.8253263 48.0032742,30.7195835 48.847672,30.5186721 C48.9519186,30.5609692 49.0144666,30.6455635 49.0353159,30.7407321 C48.4990235,31.3434959 48.1413021,32.0875331 48.0032742,32.8873121 C47.3360957,33.5957893 46.3874513,34.2090979 46.3144786,35.213655 C46.4291499,35.7212208 46.8565612,35.2453779 47.1484518,35.2982493 C47.2735477,35.3088236 47.3673697,35.4251408 47.356945,35.5626065 L46.7001912,36.5565894 C46.3457526,37.1381751 46.7627392,37.8255037 46.7627392,38.3753666 C46.9712325,38.8194866 47.4403423,39.094418 47.9198769,39.0626952 C48.9310693,39.020398 49.8171657,38.6291494 50.7032622,38.3119209 C51.7555761,37.9278136 52.8922963,37.8472841 53.9870313,38.0792866 C55.0294977,38.0158408 55.8113475,37.3073637 56.5931973,36.6094608 C57.0101838,36.6623322 57.4063211,36.873818 57.6773623,37.2227694 C58.8435747,38.4816351 60.5019044,39.1482861 62.2016665,39.0415466 L62.3476118,38.9569523 C62.3988017,38.8979075 62.4214234,38.818813 62.4093338,38.7411465 C62.3972442,38.6634801 62.3516982,38.5953033 62.2850638,38.5551294 L61.2425974,38.0052666 C60.5128709,37.5294237 59.5955005,36.9055408 59.3453086,36.0701722 C59.0859976,35.2668888 58.7287945,34.4996019 58.2819928,33.7861264 C58.1256229,33.4266007 57.7607596,33.1305207 57.6148143,32.770995 C57.6437145,32.7106195 57.7050656,32.6732806 57.7711843,32.6758264 C58.9178973,33.0776493 59.6163498,34.2408207 60.1480077,35.2771008 C61.0028301,36.4719951 62.2225158,37.4977008 63.8174894,37.2227694 L63.95301,37.1064522 C64.0156633,37.0258264 64.0156633,36.9121466 63.95301,36.8315208 L63.1503109,36.4296979 L63.1398862,36.4296979 Z M45.6577248,20.5259718 L45.6056015,20.5153975 L45.6056015,20.536546 L45.5847522,20.5471203 C45.5117795,20.6317146 45.3762589,20.6528632 45.2928616,20.5788432 L45.2720123,20.5576946 L45.2615876,20.5259718 C45.1052176,19.5954346 44.8654504,18.6754717 44.5318611,17.7872317 L44.3233678,17.427706 L44.2399705,17.3219631 L44.0627512,17.0576059 C43.8630842,16.8014776 43.8265682,16.4516545 43.9689293,16.1587916 L43.9897786,16.1270688 C44.1774225,15.9790288 44.4171898,15.9367316 44.6361078,16.0213259 L44.6673817,16.0424745 C45.000971,16.3174059 45.2824369,16.6663574 45.4700809,17.0681802 C45.6994235,17.6603403 45.8245194,18.3053717 45.8140948,18.9504031 C45.8140948,19.4791174 45.7411221,20.0078317 45.6056015,20.5153975 L45.6577248,20.5259718 L45.6577248,20.5259718 Z M54.1538259,35.4145665 L54.1329766,35.4145665 C53.684716,35.5626065 53.2156062,35.6154779 52.7464963,35.5837551 L52.7152223,35.5837551 L52.6214003,35.5414579 L52.5171537,35.4780122 C52.4404306,35.4189185 52.4108073,35.3158955 52.444181,35.2242293 C52.6884399,34.5171739 53.2692149,33.9837898 53.9870313,33.807275 L54.0912779,33.807275 L54.2580726,33.8389979 C54.3831685,33.8707207 54.4874152,33.9870379 54.4978398,34.1245036 C54.5186892,34.2302464 54.5186892,34.3571379 54.5186892,34.473455 C54.5499632,34.8329808 54.4144425,35.1819322 54.1538259,35.4251408 L54.1538259,35.4145665 Z M56.8746632,29.2497577 L56.8121152,29.4400949 L56.7495672,29.6410063 C56.7095043,29.7963111 56.5899346,29.9175969 56.4368273,29.9582349 C56.3518356,29.9890291 56.257187,29.9730279 56.1866354,29.9159378 C56.1163115,29.8604801 56.0773404,29.773513 56.0823887,29.6833035 L56.0719641,29.482392 L55.9989914,28.7844891 C55.9601123,28.5049258 55.8604071,28.2376371 55.7071008,28.001992 C55.4882273,27.7583627 55.2727627,27.5116047 55.0607717,27.261792 C54.8768829,27.0384379 54.6158734,26.8947134 54.3310452,26.8599691 C54.1121273,26.9445634 53.9140587,27.0714548 53.7681134,27.261792 L53.5387707,27.557872 L53.3302775,27.8433777 C53.2685517,27.9168591 53.1656045,27.9386143 53.0800855,27.8962491 L53.0488115,27.8856748 C52.9920717,27.7521787 52.9636572,27.6080668 52.9654142,27.4627034 C52.9654142,27.261792 53.0175376,27.0714548 53.0905102,26.8916919 L53.2781542,26.5110177 L53.4866474,26.0774719 L53.5074968,26.0351748 C53.6013187,25.9294319 53.6638667,25.8025405 53.6951407,25.6756491 L53.7576887,25.5276091 L53.87236,25.2103805 C53.9234819,25.0334214 54.0529568,24.8907198 54.2225781,24.824385 C54.3921994,24.7580502 54.5826045,24.7756546 54.7376071,24.8720033 C55.0086484,25.0306176 55.237991,25.2632519 55.3839363,25.5487576 L55.4881829,25.7179462 L55.6132789,25.9294319 L55.8738955,26.2678091 C56.6036219,27.0820291 56.9476359,27.853952 56.9476359,28.6470234 C56.9476359,28.8585091 56.9163619,29.0594206 56.8746632,29.2497577 L56.8746632,29.2497577 Z" id="Shape" fill="#DB0A40" fill-rule="nonzero"></path>
                <path d="M4.83951798,39.8179148 C5.50936928,39.2986307 6.04133263,38.5931685 6.38086376,37.773862 C6.26017394,37.502197 6.07537092,37.2709803 5.84567425,37.1042584 C5.68657856,37.0310564 5.50600629,37.0396729 5.35329991,37.1277533 C4.85022177,37.5859031 4.32573605,37.9970631 3.77984275,38.3612335 C3.54435937,38.5374449 3.64069348,38.9133627 3.58717453,39.1835536 C3.58717453,39.4419971 3.86547307,39.6182085 4.00462234,39.7709251 C4.2722171,39.8883994 4.57192322,39.9118943 4.85022177,39.8179148 M2.45257277,39.8883994 C2.04582874,40.0881057 1.74612262,40.4640235 1.60697334,40.9221733 C1.49993544,41.7209985 1.64978851,42.4728341 1.08248763,43.0602056 C1.06108005,43.2129222 0.921930774,43.3891336 1.06108005,43.5301028 C1.57486197,43.753304 2.11005148,43.9060206 2.66664857,44 C2.93424333,43.0249633 3.13761534,41.9441997 3.45872904,41.0983847 L3.45872904,40.8399413 C3.1804305,40.4757709 2.91283575,39.9941263 2.45257277,39.9001468 M37.1114454,37.1982379 C37.5717083,37.7503671 37.539597,38.6079295 38.0747865,39.030837 C38.7384215,39.113069 39.4020564,38.8898678 39.8944308,38.4082232 C40.1941369,38.1262849 39.7659853,37.773862 39.7124664,37.4449339 C39.4127602,36.9750367 39.626836,36.0117474 38.8989783,36 C38.1711206,36.1057269 37.4325591,36.1527166 36.6939975,36.1527166 L36.4906255,36.3054332 C36.3514762,36.7753304 36.9937037,36.7753304 37.1114454,37.1982379" id="Shape" fill="#DB0A40" fill-rule="nonzero"></path>
                <path d="M214.494947,33.7740131 C214.494947,35.7323593 216.086463,37.3207958 218.062855,37.3207958 C220.028845,37.3207958 221.620361,35.7323593 221.620361,33.7740131 L221.620361,21.9912962 L227.778384,21.9912962 L227.778384,35.0251787 C227.778384,39.4314579 223.409517,43 218.042051,43 C212.653781,43 208.295315,39.4314579 208.295315,35.0251787 L208.295315,21.9912962 L214.494947,21.9912962 L214.494947,33.7740131 Z M241.758761,42.27106 L248,42.27106 L248,8 L241.758761,8 L241.758761,42.27106 Z M231.211066,42.27106 L237.452305,42.27106 L237.452305,8 L231.211066,8 L231.211066,42.27106 Z M117.027591,15.1914827 L113.636518,15.1914827 L113.636518,42.27106 L107,42.27106 L107,9.57755673 L118.411066,9.57755673 C123.612099,9.57755673 127.814533,13.8967983 127.814533,19.227852 C127.786607,23.7113302 124.82265,27.589772 120.64751,28.6061548 L129.822132,42.27106 L121.999779,42.27106 L115.363261,31.5654336 L115.363261,23.7429282 L116.902767,23.7429282 C119.357654,23.7429282 121.344449,21.8281007 121.344449,19.4672055 C121.325666,18.2974447 120.857368,17.1848595 120.045189,16.3804197 C119.23301,15.5759799 118.145363,15.1474456 117.027591,15.1914827" id="Shape" fill="#D2003C" fill-rule="nonzero"></path>
                <path d="M135.467995,29.7050047 C135.395306,28.2307429 136.096115,26.8342756 137.290192,26.0740039 C138.484269,25.3137322 139.976741,25.3137322 141.170819,26.0740039 C142.364896,26.8342756 143.065705,28.2307429 142.993015,29.7050047 L135.467995,29.7050047 L135.467995,29.7050047 Z M149.060255,33.4693814 C149.101319,33.0233136 149.121851,32.5663662 149.111585,32.098539 C149.214246,25.026733 144.799841,21.1535592 139.174042,21.1535592 C133.519571,21.1954824 128.966245,26.0842804 129.000189,32.0767796 C128.971909,38.0668349 133.521951,42.952107 139.174042,43 C143.465254,43 146.811988,40.9437364 148.536686,37.7233447 L143.537116,35.2754119 C142.813022,36.8254107 141.308727,37.7921142 139.677079,37.7559838 C137.285087,37.7559838 135.509059,35.8846752 135.488527,33.6869754 L135.488527,33.4693814 L149.060255,33.4693814 L149.060255,33.4693814 Z M162.981028,37.2663973 C160.486376,37.2663973 158.463963,34.9163817 158.463963,32.0115014 C158.463963,29.1175008 160.486376,26.7674852 162.981028,26.7674852 C165.485946,26.7674852 167.498093,29.1175008 167.498093,32.0115014 C167.498093,34.9163817 165.485946,37.2663973 162.981028,37.2663973 Z M173.575599,42.27106 L173.565333,8 L167.426231,8 L167.426231,24.2107554 C165.789076,22.4591671 163.562148,21.4689674 161.235799,21.4581909 C156.1541,21.4581909 152.027145,26.2452596 152.027145,32.1420578 C152.027145,38.0388561 156.1541,42.8259248 161.235799,42.8259248 C163.638056,42.8259248 165.81446,41.7379546 167.457029,39.9972024 L167.457029,42.27106 L173.575599,42.27106 Z M194.456759,36.5918558 L188.564043,36.5918558 L188.564043,15.1914827 L192.670465,15.1914827 C194.477291,15.1914827 195.935072,16.932235 195.935072,18.8579422 C195.935072,20.7687066 194.473458,22.3176873 192.670465,22.3176873 L190.535126,22.3176873 L190.535126,28.1927261 L194.456759,28.1927261 C195.494039,28.1952666 196.486461,28.6413013 197.209224,29.4297957 C197.931988,30.2182901 198.323928,31.2825174 198.296265,32.3814113 C198.214136,34.7749456 196.828219,36.4395399 194.456759,36.5918558 M199.61032,24.4718682 C201.315618,22.8502915 202.302247,20.5460179 202.330825,18.1181225 C202.330825,15.8986634 201.519807,13.8532795 200.103091,12.2430836 C198.635045,10.5349705 196.037732,9.57755673 192.526741,9.57755673 L181.993766,9.57755673 L181.993766,42.27106 L195.596292,42.27106 C200.801183,42.1840224 205,38.006217 205,32.8927572 C205,29.1718993 203.768073,26.5172521 199.61032,24.4718682" id="Shape" fill="#D2003C" fill-rule="nonzero"></path>
                <g id="Group" transform="translate(106.980392, 8.225806)"></g>
            </g>
        </g>
    </g>
</svg>