<?xml version="1.0" encoding="UTF-8"?>
<svg width="192px" height="55px" viewBox="0 0 192 55" version="1.1" xmlns="http://www.w3.org/2000/svg" xmlns:xlink="http://www.w3.org/1999/xlink">
    <title>ustwo Logo</title>
    <g id="Working-Files" stroke="none" stroke-width="1" fill="none" fill-rule="evenodd">
        <g id="Desktop-HD-Copy-6" transform="translate(-1392.000000, -5206.000000)" fill="#FFFFFF">
            <g id="ustwo-Logo" transform="translate(1392.000000, 5206.000000)">
                <path d="M68.8263543,15.7103184 C67.5569486,14.8157964 65.6793056,13.748238 65.1954093,13.5515298 C63.1539618,12.7226884 61.6696999,12.9824098 60.2574743,14.023296 C59.4453427,14.5607426 58.6385357,15.479603 57.675441,16.6721879 C57.675441,16.6738549 57.6741882,16.6738549 57.6741882,16.6755219 L35.7190756,42.4352871 L37.9766321,33.4023823 L42.0006451,21.3315037 C42.0006451,21.3298367 42.0040903,21.328503 42.0018979,21.3281696 L41.9702646,21.3228352 L41.9893698,21.2651564 C41.9893698,21.2634893 41.9909359,21.2634893 41.9909359,21.2614889 C43.173898,17.3216581 42.2931753,16.5588306 38.8836637,14.0883097 L38.5259876,13.8285882 C36.2618539,12.1949104 35.1603241,13.0877654 34.3779468,15.5359483 L32.5454047,19.6438145 L13.3627519,37.3885562 L18.9277163,20.5736772 C19.4855282,18.7186194 19.3806057,17.7490816 17.7353582,16.5294911 L17.7347318,16.5294911 L13.8986397,13.7529056 C12.4788973,12.7276894 11.2821543,12.9053936 9.68983783,13.8489259 L4.9924416,16.7111961 C3.54106581,17.5750449 3.19215933,18.4555639 4.38514387,19.3207463 C4.38577028,19.3217466 4.38577028,19.3224134 4.38733628,19.3224134 L8.96790835,22.6374457 L1.36306251,46.2517585 C0.802745014,48.1201525 0.792722566,49.4484326 2.03957777,50.3522898 L6.37240745,53.4892846 C6.37397346,53.4906183 6.37491306,53.4906183 6.37491306,53.4906183 C8.13635835,54.766554 8.69949466,54.2047688 9.68012858,53.2278962 C9.68106819,53.2262292 9.68106819,53.2262292 9.68169459,53.2262292 L27.8974944,35.2247666 L25.0724167,43.0364138 L25.0699111,43.0444155 C23.3473028,48.7562866 23.6395198,49.3567466 27.3055435,52.0216418 C27.777225,52.3647142 29.8343325,53.9383793 30.3241796,54.0830765 C32.1050434,54.6081872 33.2231728,53.5973074 34.7587998,51.6022201 C34.7594262,51.600553 34.7603658,51.5992194 34.7619318,51.5992194 L60.5186843,20.5543398 L60.3526875,44.7981186 L56.4786981,43.016743 C55.0479936,42.3442679 53.3595242,41.6147807 53.3018951,44.0656308 L53.3018951,48.2041702 C53.3018951,50.0408908 54.2349224,52.2100149 56.1514025,53.0538595 L58.7456506,54.2037686 C60.7683059,55.1329646 61.7126085,55.3913524 63.7581275,54.2004346 C63.8865401,54.1274192 68.0997268,51.5905509 68.1833516,51.5388734 C70.1421139,50.3602915 70.6015805,49.3347419 70.7221631,47.6180466 L70.7754073,45.5039341 L70.7754073,45.5022671 L71,21.2278151 C71.0052972,18.005469 70.2282443,16.6978599 68.8263543,15.7103184" id="Fill-1"></path>
                <path d="M188.582886,16.6898316 C187.488861,15.3857268 186.645929,14.9303766 184.805007,14.9303766 C182.726073,14.9303766 181.305021,15.9296173 181.305021,15.9296173 L177.703896,18.1200982 C176.225734,18.9604204 175.870312,19.8172831 177.085257,20.6585783 C177.086214,20.6595512 177.086214,20.6601999 177.087809,20.6601999 L181.753925,23.8852728 C182.192939,24.2446232 181.983642,29.289151 180.398598,33.6354102 C178.753254,38.1451285 177.606905,40.2230692 175.014937,43.3138722 C172.716815,46.0540815 169.033375,48.6846694 166.441407,47.2660784 C163.666624,45.7475957 163.773187,41.2917151 167.039308,33.5848158 C168.435155,30.2913106 170.761354,26.5077526 172.1572,24.0753264 C173.552728,21.6432244 172.826569,19.5198784 170.550461,17.7568559 L167.343045,15.3091864 C165.122133,13.8351361 162.126885,13.9846492 159.609894,16.5257239 L138.696761,38.8635051 L142.224823,27.2468859 L143.172404,24.8040813 C143.172404,24.8024596 143.173999,24.8024596 143.173999,24.8001894 C144.378734,20.9673342 143.082751,20.2256064 139.609884,17.8223692 L139.245209,17.5697212 C136.939111,15.9802117 135.816691,16.8487501 135.019702,19.2305819 L134.975354,19.3265816 L115.338423,37.9790749 L120.443872,22.1543583 C120.445467,22.1527366 120.445467,22.1504664 120.445467,22.1475475 C121.425272,19.0415013 118.890414,17.3543704 115.984501,15.344862 C113.078587,13.3353536 111.630735,14.6206476 109.229879,17.4597756 C109.229879,17.4613972 109.228284,17.4613972 109.228284,17.4630188 L86.863789,42.9266299 L95.5572817,15.410051 C96.4359472,12.61795 95.8702704,11.6258444 94.2976696,10.4676852 L90.9201992,8.6161223 L146.585608,8.6161223 C147.852877,8.60963583 148.005064,7.84520534 147.346544,6.52034383 L145.246871,2.18803049 C144.522307,0.737331464 143.733614,-0.00472070875 142.227376,0 L36.1462181,0 C36.1449419,0 36.1446228,0 36.1436657,0 C34.8767154,0.00695493732 34.7242092,0.79246646 35.3827298,2.11732797 L37.4827213,6.44996563 C38.2069664,7.90034033 38.9959787,8.62066283 40.5018978,8.61579798 L87.0118285,8.6161223 L76.0176614,43.5113852 C76.0170233,43.5146284 76.0160662,43.51625 76.0154281,43.519169 C74.2606494,49.0754792 74.5583236,49.6595858 78.2924927,52.2519036 C82.028257,54.8461673 82.9844519,55.4422739 85.8852606,51.8442289 C85.8862177,51.842283 85.8868558,51.8406614 85.8884511,51.8406614 L111.209908,22.0810611 L103.146221,46.4698642 C102.359123,49.1079115 102.574163,50.0685578 103.78496,50.9040151 C105.128164,51.8351479 105.981943,52.424768 107.584535,53.5323328 C109.177555,54.6334111 109.88489,54.8653024 111.929048,52.9073614 L131.946925,33.5462213 L126.802552,46.4523507 C125.766914,49.7494234 126.20497,50.1739629 129.131622,52.1967686 C129.136408,52.2000118 129.140874,52.2032551 129.14566,52.2081199 L130.973501,53.4697383 C132.727323,54.6146003 133.891539,54.9029239 135.602608,52.9206586 C135.604522,52.919037 161.526432,24.5572711 161.526432,24.5572711 C160.012217,27.5212636 158.218195,30.4563913 157.179047,33.6305454 C154.767343,40.9985267 153.967483,52.5110381 163.709377,54.5438978 C165.02897,54.8192484 166.540951,55.0277884 167.6471,54.9969777 C181.553242,54.4997898 189.081243,40.2516097 190.671073,28.9401789 C191.681187,21.7531701 190.188349,18.6039889 188.582886,16.6898316" id="Fill-3"></path>
            </g>
        </g>
    </g>
</svg>